<?xml version="1.0" encoding="utf-8"?>
<!-- Generator: Adobe Illustrator 22.1.0, SVG Export Plug-In . SVG Version: 6.00 Build 0)  -->
<svg version="1.1" id="Layer_1" xmlns="http://www.w3.org/2000/svg" xmlns:xlink="http://www.w3.org/1999/xlink" x="0px" y="0px"
	 viewBox="0 0 385.9 114.5" style="enable-background:new 0 0 385.9 114.5;" xml:space="preserve">
<style type="text/css">
	.st0{fill:#FFFFFF;}
</style>
<title>sandals</title>
<path class="st0" d="M67.6,6.9c-3.6,5.4-15.1,15.5-21.5,19.4c-2.4,1.5-5.1-1.8-7.1-1.4c-2.6,0.5-4.2,3-3.7,5.6
	c0,0.1,0.1,0.3,0.1,0.4C42,47,51.3,60.8,56.9,77c1.7,4.8,1.6,7.2-2.2,11.6c-6.1,7-27.2,22.8-44.7,25.8c-3.9,0.6-12.4-9.9-9.3-12.3
	C11,93.7,30.9,83.9,34.5,85.1c1,0.3,2.4,3,3.1,2.9c2.2-0.2,3.9-1,2.4-4.2c0,0-17.6-29.2-21.7-46c-2.7-11.1,7.3-20.6,14.6-26.4
	C44.9,1.9,61-1,63.6,0.3c1.9,0.9,4.5,2.6,5.1,4.2C68.9,4.9,67.9,6.4,67.6,6.9z M210.2,82.9c0.2-2.1-0.5-4.7,0.5-12.7
	c-8.7,6.1-16.1,12.4-17.3,22.5c-0.1,0.6,1.2,2.7,2.5,1.9C201.6,90.8,208,85.4,210.2,82.9z M331.2,32c-7,6.6-14,23.2-13.2,32.1
	C324.2,57,332,41.3,331.2,32z M304,80c0-3.4,0.4-5.2,0.5-9.4c0.7-19.8,12.4-43.3,24.7-52.1c3.8-2.7,11.4-2.2,12.6,3
	c3.6,16-8.3,36-17.4,49.5c-3,4.5-4.4,6.7-6.7,9.9c-2,2.8-0.1,9.6,1.2,11.9c4.1,6.9,14.1-0.7,18.2-4.4c5.7-5.3,10.7-11.3,14.7-17.9
	c0.2-0.3-1.2-2.8-1.2-2.8c-0.3,0.2,7.2-9,9.2-11.8c4.1,2.1,9.5,8.6,10.8,12c2.7,6.7,2,13.6-1.6,20.8c-0.6,1.3-1.3,2.5-2,3.6
	c5-3,13.2-13.6,13.6-13.5c1.6,0.4,5.4,3.2,5.3,3.4c-9,13.6-20.5,25.7-35.7,27.6c-0.6,0.1-5.2-5.5-4-6.5c3.4-2.7,9-9.8,11-14.6
	c1.9-4.6,2-6.4,1.6-9.3c-0.3-2.4-1.5-0.9-1.5-0.9c-3.7,5.4-7.7,10.5-12,15.4c-10,10.7-15.4,12.7-17.7,13.4
	c-11,3.5-16.8-1.9-19.4-5.8c-3.4-5.1-2.1-10.9-4.2-9.4c-3.9,4.2-16.1,17.2-22.8,15.8c-11-2.3-4.3-16.2-11.8-14.7
	c-9.3,1.9-22.5,17-22.5,17s-6.6-3.9-8.8-5c-0.4-0.2,0.4-7.1,0.2-6.9c-10.3,8.2-14.4,8-17.5,6.1c-4.4-2.7-6.3-6.5-8.3-11.1
	c-5.4,7-17.6,15.5-21.8,17.2c-1.7,0.7-12.1-4.5-12.7-11.8c-5.5,1.7-9.4,2.1-13.4-7.4c-1.5-3.5-2.8-6.6-4-10.4
	c-5.6,8.5-18.7,24.7-26.8,29.2c-1.8,1-10.4-4.1-9.7-6.4c1.4-5.6,2.6-11.2,3.3-16.9c-1,1.4-2.1,2.7-3.3,4c-2.2,2.3-14.7,18.7-22,17.1
	c-11-2.3-4.3-16.3-11.8-14.8c-9.3,1.9-22.7,17.1-22.7,17.1c-0.7,0.5-6.5-3.9-8.7-5c-0.4-0.2,0.4-7,0.2-6.9c-11,6.5-6.4,7.8-11.4,2.8
	c-0.6-0.2,8.1-8.8,11.7-12.2c5.8-5.5,10.6-13.5,19.1-20.8c6.1-5.2,12.8-8.8,18.3-10.4c3.6-1,7.2,5.7,9.8,9.6
	c0.3,0.4-1.7,0.7-4.6,2.2C90.6,75.7,85.4,80,76.2,91.2c10.2-8.2,13.2-3.2,16.6-11.8h12.2c0.2,0-1,4.7-0.7,7c0.3,2.6,1.6,5.6,4.2,5.8
	c3.1,0.2,6.8-2.8,11.9-7.9c4.3-5.2,7.9-11,10.9-17.1c1.8-3.7,3.2-7.1,3.9-8.2c1-1.6,9.4,3.1,11.1,4.7c0.1,0.1,0,0.4,0.1,0.6
	c-0.7,7.5-3.2,17.9-4.3,22.7c14.5-13.2,19.6-25.5,22.1-26.2c1.1-0.1,2.2,0.1,3.2,0.6c1.8,0.7,2.1,14.9,7.9,26c2,3.7,3.2,2.3,5.5-1.7
	c3.6-6.1,10.7-13.2,18.5-19.3c4.4-3.4,9.2-6.2,14.3-8.5c2.2-13.5,12.1-33,21.5-40.2c2.3-1.8,7.8,1,7.7,3.2
	c-0.8,15.3-6.2,30-13.5,43.7c-2.4,4.5-4.7,8.7-5,11.3c-0.9,6.5,0,12.7,4.1,15c4.4,2.6,10-1,13-4.4c5-5.2,9.5-12.2,16.7-18.5
	c6.1-5.2,12.8-8.8,18.3-10.4c3.6-1,7.2,5.7,9.8,9.6c0.3,0.4-1.7,0.7-4.6,2.2c-11.5,6.2-16.7,10.5-25.9,21.7
	c10.2-8.2,13.2-3.2,16.5-11.8h12.2c0.2,0-1,4.7-0.7,7c0.3,2.6,1.6,5.6,4.2,5.8C290.6,92.5,299.2,85.3,304,80L304,80z"/>
<path class="st0" d="M67.6,6.9c-3.6,5.4-15.1,15.5-21.5,19.4c-2.4,1.5-5.1-1.8-7.1-1.4c-2.6,0.5-4.2,3-3.7,5.6
	c0,0.1,0.1,0.3,0.1,0.4C42,47,51.3,60.8,56.9,77c1.7,4.8,1.6,7.2-2.2,11.6c-6.1,7-27.2,22.8-44.7,25.8c-3.9,0.6-12.4-9.9-9.3-12.3
	C11,93.7,30.9,83.9,34.5,85.1c1,0.3,2.4,3,3.1,2.9c2.2-0.2,3.9-1,2.4-4.2c0,0-17.6-29.2-21.7-46c-2.7-11.1,7.3-20.6,14.6-26.4
	C44.9,1.9,61-1,63.6,0.3c1.9,0.9,4.5,2.6,5.1,4.2C68.9,4.9,67.9,6.4,67.6,6.9z M210.2,82.9c0.2-2.1-0.5-4.7,0.5-12.7
	c-8.7,6.1-16.1,12.4-17.3,22.5c-0.1,0.6,1.2,2.7,2.5,1.9C201.6,90.8,208,85.4,210.2,82.9z M331.2,32c-7,6.6-14,23.2-13.2,32.1
	C324.2,57,332,41.3,331.2,32z M304,80c0-3.4,0.4-5.2,0.5-9.4c0.7-19.8,12.4-43.3,24.7-52.1c3.8-2.7,11.4-2.2,12.6,3
	c3.6,16-8.3,36-17.4,49.5c-3,4.5-4.4,6.7-6.7,9.9c-2,2.8-0.1,9.6,1.2,11.9c4.1,6.9,14.1-0.7,18.2-4.4c5.7-5.3,10.7-11.3,14.7-17.9
	c0.2-0.3-1.2-2.8-1.2-2.8c-0.3,0.2,7.2-9,9.2-11.8c4.1,2.1,9.5,8.6,10.8,12c2.7,6.7,2,13.6-1.6,20.8c-0.6,1.3-1.3,2.5-2,3.6
	c5-3,13.2-13.6,13.6-13.5c1.6,0.4,5.4,3.2,5.3,3.4c-9,13.6-20.5,25.7-35.7,27.6c-0.6,0.1-5.2-5.5-4-6.5c3.4-2.7,9-9.8,11-14.6
	c1.9-4.6,2-6.4,1.6-9.3c-0.3-2.4-1.5-0.9-1.5-0.9c-3.7,5.4-7.7,10.5-12,15.4c-10,10.7-15.4,12.7-17.7,13.4
	c-11,3.5-16.8-1.9-19.4-5.8c-3.4-5.1-2.1-10.9-4.2-9.4c-3.9,4.2-16.1,17.2-22.8,15.8c-11-2.3-4.3-16.2-11.8-14.7
	c-9.3,1.9-22.5,17-22.5,17s-6.6-3.9-8.8-5c-0.4-0.2,0.4-7.1,0.2-6.9c-10.3,8.2-14.4,8-17.5,6.1c-4.4-2.7-6.3-6.5-8.3-11.1
	c-5.4,7-17.6,15.5-21.8,17.2c-1.7,0.7-12.1-4.5-12.7-11.8c-5.5,1.7-9.4,2.1-13.4-7.4c-1.5-3.5-2.8-6.6-4-10.4
	c-5.6,8.5-18.7,24.7-26.8,29.2c-1.8,1-10.4-4.1-9.7-6.4c1.4-5.6,2.6-11.2,3.3-16.9c-1,1.4-2.1,2.7-3.3,4c-2.2,2.3-14.7,18.7-22,17.1
	c-11-2.3-4.3-16.3-11.8-14.8c-9.3,1.9-22.7,17.1-22.7,17.1c-0.7,0.5-6.5-3.9-8.7-5c-0.4-0.2,0.4-7,0.2-6.9c-11,6.5-6.4,7.8-11.4,2.8
	c-0.6-0.2,8.1-8.8,11.7-12.2c5.8-5.5,10.6-13.5,19.1-20.8c6.1-5.2,12.8-8.8,18.3-10.4c3.6-1,7.2,5.7,9.8,9.6
	c0.3,0.4-1.7,0.7-4.6,2.2C90.6,75.7,85.4,80,76.2,91.2c10.2-8.2,13.2-3.2,16.6-11.8h12.2c0.2,0-1,4.7-0.7,7c0.3,2.6,1.6,5.6,4.2,5.8
	c3.1,0.2,6.8-2.8,11.9-7.9c4.3-5.2,7.9-11,10.9-17.1c1.8-3.7,3.2-7.1,3.9-8.2c1-1.6,9.4,3.1,11.1,4.7c0.1,0.1,0,0.4,0.1,0.6
	c-0.7,7.5-3.2,17.9-4.3,22.7c14.5-13.2,19.6-25.5,22.1-26.2c1.1-0.1,2.2,0.1,3.2,0.6c1.8,0.7,2.1,14.9,7.9,26c2,3.7,3.2,2.3,5.5-1.7
	c3.6-6.1,10.7-13.2,18.5-19.3c4.4-3.4,9.2-6.2,14.3-8.5c2.2-13.5,12.1-33,21.5-40.2c2.3-1.8,7.8,1,7.7,3.2
	c-0.8,15.3-6.2,30-13.5,43.7c-2.4,4.5-4.7,8.7-5,11.3c-0.9,6.5,0,12.7,4.1,15c4.4,2.6,10-1,13-4.4c5-5.2,9.5-12.2,16.7-18.5
	c6.1-5.2,12.8-8.8,18.3-10.4c3.6-1,7.2,5.7,9.8,9.6c0.3,0.4-1.7,0.7-4.6,2.2c-11.5,6.2-16.7,10.5-25.9,21.7
	c10.2-8.2,13.2-3.2,16.5-11.8h12.2c0.2,0-1,4.7-0.7,7c0.3,2.6,1.6,5.6,4.2,5.8C290.6,92.5,299.2,85.3,304,80L304,80z"/>
<path class="st0" d="M374.7,110.1c-1.1,1-2.8,1-3.8,0c-1-1.1-1-2.8,0-3.8c1.1-1,2.8-1,3.8,0c0.5,0.5,0.8,1.2,0.8,1.9
	C375.5,108.9,375.2,109.6,374.7,110.1z M371.1,106.5c-0.4,0.4-0.7,1-0.7,1.6c0,0.6,0.2,1.2,0.7,1.7c0.9,0.9,2.4,0.9,3.3,0
	c0,0,0,0,0,0c0.4-0.4,0.7-1,0.7-1.7c0-1.3-1-2.3-2.3-2.3C372.1,105.8,371.5,106.1,371.1,106.5z M372.7,106.7c0.3,0,0.5,0,0.8,0.1
	c0.3,0.1,0.5,0.4,0.5,0.8c0,0.2-0.1,0.5-0.3,0.6c-0.1,0.1-0.3,0.1-0.4,0.1c0.2,0,0.4,0.1,0.5,0.3c0.1,0.1,0.2,0.3,0.2,0.5v0.4
	c0,0,0,0.1,0,0.2h-0.5v-0.4c0-0.3-0.1-0.5-0.3-0.7c-0.2-0.1-0.4-0.1-0.6-0.1h-0.4v1.2h-0.5v-3L372.7,106.7z M373.3,107.1
	c-0.2-0.1-0.4-0.1-0.6-0.1h-0.4v1h0.5c0.2,0,0.3,0,0.5-0.1c0.2-0.1,0.3-0.3,0.3-0.5C373.5,107.4,373.4,107.2,373.3,107.1
	L373.3,107.1z"/>
</svg>
