<svg xmlns="http://www.w3.org/2000/svg" width="5.36in" height="1.59in" viewBox="0 0 385.7 114.41"><defs><style>.a,.b{fill:#fff}.a{fill-rule:evenodd}</style></defs><title>sandals</title><path class="a" d="M67.52 6.94c-3.63 5.4-15.14 15.48-21.44 19.37C43.69 27.78 41 24.56 39 24.9a4.72 4.72 0 0 0-3.57 6C42 47 51.3 60.75 56.86 77c1.65 4.8 1.58 7.23-2.21 11.58-6.07 7-27.22 22.83-44.68 25.82-3.89.6-12.36-9.87-9.33-12.33C11 93.66 30.84 83.86 34.47 85c1 .31 2.35 3 3.09 2.92 2.2-.23 3.93-1 2.44-4.16 0 0-17.6-29.22-21.68-45.94-2.71-11.11 7.34-20.61 14.57-26.37C44.88 1.86 61-1 63.61.27c1.89.9 4.5 2.64 5.07 4.23.15.4-.78 1.87-1.16 2.44zm142.54 75.92c.22-2.14-.53-4.7.46-12.74-8.67 6.09-16.11 12.38-17.33 22.45-.08.64 1.19 2.74 2.51 1.9 5.79-3.68 12.23-9.15 14.36-11.61zM331 32c-7 6.62-14 23.19-13.16 32.07C324 57 331.82 41.3 331 32zm-27.21 48c0-3.35.36-5.22.51-9.37.73-19.78 12.38-43.32 24.66-52.12 3.78-2.71 11.37-2.2 12.55 3 3.64 16-8.33 36-17.41 49.46-3 4.5-4.41 6.66-6.67 9.89-1.95 2.79-.11 9.58 1.24 11.85 4.07 6.87 14.13-.68 18.21-4.4a87.19 87.19 0 0 0 14.74-17.89c.15-.25-1.17-2.78-1.17-2.78-.25.22 7.23-9 9.18-11.8 4.12 2.12 9.46 8.59 10.8 11.95 2.68 6.74 2 13.62-1.62 20.76a35.3 35.3 0 0 1-2 3.64c5-3 13.21-13.62 13.6-13.53 1.61.39 5.39 3.18 5.25 3.39-9 13.62-20.52 25.7-35.66 27.55-.64.08-5.15-5.47-4-6.45 3.37-2.74 9-9.81 11-14.63 1.92-4.64 2-6.43 1.57-9.25-.32-2.36-1.54-.86-1.54-.86a145.45 145.45 0 0 1-12 15.4c-10 10.7-15.41 12.67-17.7 13.41-11 3.52-16.77-1.91-19.38-5.82-3.37-5.06-2.09-10.91-4.16-9.39-3.92 4.23-16.09 17.16-22.76 15.77-11-2.29-4.27-16.16-11.8-14.65-9.33 1.88-22.49 17-22.49 17s-6.6-3.93-8.8-5c-.39-.2.38-7.1.18-6.94-10.31 8.22-14.4 7.95-17.51 6.07-4.41-2.67-6.28-6.47-8.32-11.11-5.44 7-17.61 15.46-21.81 17.21-1.7.71-12.07-4.51-12.74-11.76-5.52 1.65-9.4 2.11-13.35-7.41-1.47-3.53-2.78-6.63-4-10.37-5.58 8.51-18.65 24.69-26.76 29.22-1.82 1-10.42-4.1-9.71-6.43a149.26 149.26 0 0 0 3.34-16.92 46.77 46.77 0 0 1-3.29 4c-2.21 2.34-14.65 18.64-22 17.11-11-2.29-4.27-16.29-11.79-14.78-9.33 1.88-22.64 17.14-22.64 17.14-.65.5-6.46-3.93-8.66-5-.39-.2.4-7 .19-6.87-11 6.45-6.39 7.79-11.36 2.84-.58-.16 8.1-8.84 11.74-12.24 5.84-5.45 10.61-13.54 19.1-20.81 6.1-5.23 12.76-8.81 18.25-10.36 3.58-1 7.24 5.69 9.77 9.56.28.43-1.7.66-4.62 2.23C90.5 75.67 85.33 80 76.13 91.17 86.35 83 89.3 88 92.68 79.39h12.18c.18 0-1 4.72-.74 7 .33 2.58 1.59 5.63 4.22 5.81 3.13.21 6.82-2.76 11.89-7.94a83.7 83.7 0 0 0 10.86-17.06c1.82-3.68 3.19-7.13 3.88-8.15 1-1.56 9.38 3.14 11.09 4.69.12.11 0 .39.09.6-.68 7.46-3.15 17.9-4.26 22.66 14.49-13.23 19.58-25.52 22.11-26.2a6.61 6.61 0 0 1 3.16.55c1.77.69 2.06 14.89 7.85 25.94 2 3.74 3.21 2.26 5.48-1.67 3.62-6.05 10.7-13.21 18.47-19.27a69.7 69.7 0 0 1 14.32-8.46c2.18-13.51 12.05-33 21.48-40.16 2.32-1.75 7.77 1 7.65 3.17-.81 15.26-6.19 30-13.51 43.72-2.41 4.53-4.68 8.74-5 11.27-.87 6.47 0 12.65 4.08 15 4.41 2.59 10-1 13-4.39 5-5.23 9.45-12.22 16.71-18.45 6.1-5.23 12.76-8.81 18.25-10.36 3.58-1 7.24 5.69 9.77 9.56.28.43-1.7.66-4.62 2.23-11.48 6.19-16.65 10.52-25.85 21.69C265.46 83 268.4 88 271.78 79.39h12.18c.18 0-1 4.72-.74 7 .33 2.58 1.59 5.63 4.22 5.81 3.04.2 11.63-7 16.38-12.14z"/><path class="a" d="M67.52 6.94c-3.63 5.4-15.14 15.48-21.44 19.37C43.69 27.78 41 24.56 39 24.9a4.72 4.72 0 0 0-3.57 6C42 47 51.3 60.75 56.86 77c1.65 4.8 1.58 7.23-2.21 11.58-6.07 7-27.22 22.83-44.68 25.82-3.89.6-12.36-9.87-9.33-12.33C11 93.66 30.84 83.86 34.47 85c1 .31 2.35 3 3.09 2.92 2.2-.23 3.93-1 2.44-4.16 0 0-17.6-29.22-21.68-45.94-2.71-11.11 7.34-20.61 14.57-26.37C44.88 1.86 61-1 63.61.27c1.89.9 4.5 2.64 5.07 4.23.15.4-.78 1.87-1.16 2.44zm142.54 75.92c.22-2.14-.53-4.7.46-12.74-8.67 6.09-16.11 12.38-17.33 22.45-.08.64 1.19 2.74 2.51 1.9 5.79-3.68 12.23-9.15 14.36-11.61zM331 32c-7 6.62-14 23.19-13.16 32.07C324 57 331.82 41.3 331 32zm-27.21 48c0-3.35.36-5.22.51-9.37.73-19.78 12.38-43.32 24.66-52.12 3.78-2.71 11.37-2.2 12.55 3 3.64 16-8.33 36-17.41 49.46-3 4.5-4.41 6.66-6.67 9.89-1.95 2.79-.11 9.58 1.24 11.85 4.07 6.87 14.13-.68 18.21-4.4a87.19 87.19 0 0 0 14.74-17.89c.15-.25-1.17-2.78-1.17-2.78-.25.22 7.23-9 9.18-11.8 4.12 2.12 9.46 8.59 10.8 11.95 2.68 6.74 2 13.62-1.62 20.76a35.3 35.3 0 0 1-2 3.64c5-3 13.21-13.62 13.6-13.53 1.61.39 5.39 3.18 5.25 3.39-9 13.62-20.52 25.7-35.66 27.55-.64.08-5.15-5.47-4-6.45 3.37-2.74 9-9.81 11-14.63 1.92-4.64 2-6.43 1.57-9.25-.32-2.36-1.54-.86-1.54-.86a145.45 145.45 0 0 1-12 15.4c-10 10.7-15.41 12.67-17.7 13.41-11 3.52-16.77-1.91-19.38-5.82-3.37-5.06-2.09-10.91-4.16-9.39-3.92 4.23-16.09 17.16-22.76 15.77-11-2.29-4.27-16.16-11.8-14.65-9.33 1.88-22.49 17-22.49 17s-6.6-3.93-8.8-5c-.39-.2.38-7.1.18-6.94-10.31 8.22-14.4 7.95-17.51 6.07-4.41-2.67-6.28-6.47-8.32-11.11-5.44 7-17.61 15.46-21.81 17.21-1.7.71-12.07-4.51-12.74-11.76-5.52 1.65-9.4 2.11-13.35-7.41-1.47-3.53-2.78-6.63-4-10.37-5.58 8.51-18.65 24.69-26.76 29.22-1.82 1-10.42-4.1-9.71-6.43a149.26 149.26 0 0 0 3.34-16.92 46.77 46.77 0 0 1-3.29 4c-2.21 2.34-14.65 18.64-22 17.11-11-2.29-4.27-16.29-11.79-14.78-9.33 1.88-22.64 17.14-22.64 17.14-.65.5-6.46-3.93-8.66-5-.39-.2.4-7 .19-6.87-11 6.45-6.39 7.79-11.36 2.84-.58-.16 8.1-8.84 11.74-12.24 5.84-5.45 10.61-13.54 19.1-20.81 6.1-5.23 12.76-8.81 18.25-10.36 3.58-1 7.24 5.69 9.77 9.56.28.43-1.7.66-4.62 2.23C90.5 75.67 85.33 80 76.13 91.17 86.35 83 89.3 88 92.68 79.39h12.18c.18 0-1 4.72-.74 7 .33 2.58 1.59 5.63 4.22 5.81 3.13.21 6.82-2.76 11.89-7.94a83.7 83.7 0 0 0 10.86-17.06c1.82-3.68 3.19-7.13 3.88-8.15 1-1.56 9.38 3.14 11.09 4.69.12.11 0 .39.09.6-.68 7.46-3.15 17.9-4.26 22.66 14.49-13.23 19.58-25.52 22.11-26.2a6.61 6.61 0 0 1 3.16.55c1.77.69 2.06 14.89 7.85 25.94 2 3.74 3.21 2.26 5.48-1.67 3.62-6.05 10.7-13.21 18.47-19.27a69.7 69.7 0 0 1 14.32-8.46c2.18-13.51 12.05-33 21.48-40.16 2.32-1.75 7.77 1 7.65 3.17-.81 15.26-6.19 30-13.51 43.72-2.41 4.53-4.68 8.74-5 11.27-.87 6.47 0 12.65 4.08 15 4.41 2.59 10-1 13-4.39 5-5.23 9.45-12.22 16.71-18.45 6.1-5.23 12.76-8.81 18.25-10.36 3.58-1 7.24 5.69 9.77 9.56.28.43-1.7.66-4.62 2.23-11.48 6.19-16.65 10.52-25.85 21.69C265.46 83 268.4 88 271.78 79.39h12.18c.18 0-1 4.72-.74 7 .33 2.58 1.59 5.63 4.22 5.81 3.04.2 11.63-7 16.38-12.14z"/><path class="b" d="M374.44 110a2.69 2.69 0 1 1 .79-1.91 2.59 2.59 0 0 1-.79 1.91zm-3.54-3.54a2.23 2.23 0 0 0-.67 1.64 2.26 2.26 0 0 0 .67 1.65 2.31 2.31 0 0 0 3.27 0 2.26 2.26 0 0 0 .67-1.65 2.31 2.31 0 0 0-3.94-1.64zm1.58.15a2.27 2.27 0 0 1 .81.11.73.73 0 0 1 .46.75.65.65 0 0 1-.29.58 1.11 1.11 0 0 1-.43.14.71.71 0 0 1 .51.29.81.81 0 0 1 .16.46v.44a.5.5 0 0 0 0 .15h-.49v-.39a.72.72 0 0 0-.28-.68 1.27 1.27 0 0 0-.58-.09H372v1.16h-.52v-3zm.56.46a1.36 1.36 0 0 0-.63-.11H372V108h.47a1.42 1.42 0 0 0 .5-.07.45.45 0 0 0 .3-.46.45.45 0 0 0-.27-.42z"/></svg>